<svg id="Layer_1" data-name="Layer 1" xmlns="http://www.w3.org/2000/svg" xmlns:xlink="http://www.w3.org/1999/xlink" viewBox="0 0 707.39 218.4"><defs><style>.cls-1{fill:url(#linear-gradient);}</style><linearGradient id="linear-gradient" x1="67.44" y1="283.58" x2="599.53" y2="-23.62" gradientUnits="userSpaceOnUse"><stop offset="0.28" stop-color="#be81cc"/><stop offset="1" stop-color="#d99fa4"/></linearGradient></defs><path class="cls-1" d="M82.5,218.4q-24.3,0-42.9-8.7a68.24,68.24,0,0,1-29.1-24.9Q0,168.6,0,145.8v-8.4H39v8.4q0,18.9,11.7,28.35t31.8,9.45q20.4,0,30.45-8.1a25.43,25.43,0,0,0,10-20.7q0-8.7-5-14.1t-14.4-8.85a184.87,184.87,0,0,0-23-6.45l-6.9-1.5q-21.6-4.8-37-12.15T13.05,92.4Q4.8,80.4,4.8,61.2T14,28.35q9.15-13.65,25.8-21T78.9,0Q101.4,0,119,7.65a62,62,0,0,1,27.6,22.8q10,15.15,10,38v9h-39v-9q0-12-4.65-19.35A27.11,27.11,0,0,0,99.6,38.25Q90.9,34.8,78.9,34.8q-18,0-26.55,6.75T43.8,60a21.37,21.37,0,0,0,4.05,13.2q4,5.4,12.15,9a107.15,107.15,0,0,0,20.7,6.3L87.6,90a194.38,194.38,0,0,1,39.15,12.3q16.65,7.5,25.95,19.8t9.3,31.5q0,19.2-9.75,33.75t-27.6,22.8Q106.8,218.4,82.5,218.4Z"/><path class="cls-1" d="M191.4,214.2V4.2H231v210Z"/><path class="cls-1" d="M343.49,218.4q-24.3,0-42.9-8.7a68.24,68.24,0,0,1-29.1-24.9q-10.5-16.2-10.5-39v-8.4h39v8.4q0,18.9,11.7,28.35t31.8,9.45q20.4,0,30.45-8.1A25.43,25.43,0,0,0,384,154.8q0-8.7-4.95-14.1t-14.4-8.85a184.87,184.87,0,0,0-22.95-6.45l-6.9-1.5q-21.6-4.8-37.05-12.15T274,92.4q-8.25-12-8.25-31.2t9.15-32.85q9.15-13.65,25.8-21T339.89,0q22.5,0,40.05,7.65a62,62,0,0,1,27.6,22.8q10.05,15.15,10,38v9h-39v-9q0-12-4.65-19.35a27.11,27.11,0,0,0-13.35-10.8q-8.7-3.45-20.7-3.45-18,0-26.55,6.75T304.79,60a21.37,21.37,0,0,0,4,13.2q4.05,5.4,12.15,9a107.15,107.15,0,0,0,20.7,6.3l6.9,1.5a194.38,194.38,0,0,1,39.15,12.3q16.65,7.5,25.95,19.8t9.3,31.5q0,19.2-9.75,33.75t-27.6,22.8Q367.79,218.4,343.49,218.4Z"/><path class="cls-1" d="M533.39,218.4q-25.8,0-44.25-9.45a65.7,65.7,0,0,1-28.2-27q-9.75-17.55-9.75-41.55V4.2h39.6V141.6q0,19.2,10.95,30.3T533.39,183q20.7,0,31.65-11.1t11-30.3V4.2h39.6V140.4q0,24-9.75,41.55a65.7,65.7,0,0,1-28.2,27Q559.19,218.4,533.39,218.4Z"/><path class="cls-1" d="M678.89,218.4a28.07,28.07,0,0,1-20.25-8q-8.25-7.95-8.25-20.55t8.25-20.55a28.07,28.07,0,0,1,20.25-7.95q12.3,0,20.4,7.95t8.1,20.55q0,12.6-8.1,20.55T678.89,218.4Z"/></svg>